<?xml version="1.0" encoding="iso-8859-1"?>
<!-- Uploaded to: SVG Repo, www.svgrepo.com, Generator: SVG Repo Mixer Tools -->
<svg version="1.1" id="Layer_1" xmlns="http://www.w3.org/2000/svg" xmlns:xlink="http://www.w3.org/1999/xlink" 
	 viewBox="0 0 512 512" xml:space="preserve">
<circle style="fill:#E0E0E0;" cx="256" cy="256" r="256"/>
<rect x="64" y="164" style="fill:#FFFFFF;" width="384" height="232"/>
<rect x="64" y="116" width="384" height="48.08"/>
<circle style="fill:#00C454;" cx="97.144" cy="140.04" r="6.696"/>
<circle style="fill:#FFFFFF;" cx="117.224" cy="140.04" r="6.696"/>
<g>
	<circle style="fill:#666666;" cx="137.28" cy="140.04" r="6.696"/>
	<polygon style="fill:#666666;" points="400,151.8 192.328,151.8 206.672,128.288 414.352,128.288 	"/>
</g>
<g>
	<path style="fill:#FFFFFF;" d="M221.784,134.792l1.392,5.344c0.304,1.168,0.584,2.256,0.784,3.344h0.064
		c0.24-1.064,0.584-2.192,0.936-3.32l1.712-5.368h1.608l1.632,5.256c0.392,1.256,0.696,2.368,0.928,3.432h0.072
		c0.168-1.064,0.456-2.168,0.808-3.408l1.504-5.28h1.888l-3.392,10.512h-1.744l-1.608-5.016c-0.368-1.176-0.672-2.216-0.928-3.464
		h-0.048c-0.256,1.264-0.584,2.352-0.952,3.48l-1.696,5H223l-3.168-10.512L221.784,134.792L221.784,134.792z"/>
	<path style="fill:#FFFFFF;" d="M238,134.792l1.392,5.344c0.304,1.168,0.584,2.256,0.784,3.344h0.072
		c0.232-1.064,0.584-2.192,0.928-3.32l1.72-5.368h1.608l1.624,5.256c0.392,1.256,0.696,2.368,0.936,3.432h0.064
		c0.168-1.064,0.464-2.168,0.808-3.408l1.504-5.28h1.888l-3.392,10.512H246.2l-1.608-5.016c-0.368-1.176-0.672-2.216-0.936-3.464
		h-0.04c-0.264,1.264-0.584,2.352-0.96,3.48l-1.696,5h-1.736l-3.168-10.512L238,134.792L238,134.792z"/>
	<path style="fill:#FFFFFF;" d="M254.216,134.792l1.392,5.344c0.304,1.168,0.584,2.256,0.784,3.344h0.072
		c0.232-1.064,0.584-2.192,0.928-3.32l1.72-5.368h1.608l1.624,5.256c0.392,1.256,0.696,2.368,0.936,3.432h0.064
		c0.168-1.064,0.464-2.168,0.808-3.408l1.504-5.28h1.888l-3.392,10.512h-1.736l-1.608-5.016c-0.368-1.176-0.672-2.216-0.936-3.464
		h-0.04c-0.264,1.264-0.584,2.352-0.96,3.48l-1.696,5h-1.736l-3.168-10.512L254.216,134.792L254.216,134.792z"/>
</g>
<g>
	<polygon style="fill:#666666;" points="64,372.688 126.144,372.688 149.456,396 64,396 	"/>
	<polygon style="fill:#666666;" points="448,372.688 385.856,372.688 362.544,396 448,396 	"/>
</g>
<polygon points="176.896,248.08 335.104,248.08 256,195.04 "/>
<circle style="fill:#FFFFFF;" cx="256" cy="225.44" r="8.736"/>
<rect x="170.944" y="343.056" width="170.08" height="16.576"/>
<path d="M253.592,322.304v-6.792c-3.904-0.072-7.944-1.28-10.296-2.96l1.616-4.512c2.424,1.616,5.928,2.896,9.696,2.896
	c4.776,0,8.008-2.76,8.008-6.592c0-3.704-2.624-5.992-7.608-8.008c-6.864-2.688-11.104-5.784-11.104-11.64
	c0-5.592,3.968-9.824,10.16-10.84v-6.792h4.168v6.528c4.04,0.136,6.8,1.208,8.752,2.36l-1.688,4.44
	c-1.408-0.808-4.168-2.288-8.472-2.288c-5.184,0-7.136,3.096-7.136,5.784c0,3.496,2.488,5.248,8.344,7.672
	c6.936,2.832,10.432,6.328,10.432,12.32c0,5.32-3.704,10.296-10.632,11.448v7h-4.24V322.304z"/>
<g>
	<rect x="188.336" y="262.592" style="fill:#00C454;" width="16.576" height="65.152"/>
	<rect x="214.024" y="262.592" style="fill:#00C454;" width="16.576" height="65.152"/>
	<rect x="281.36" y="262.592" style="fill:#00C454;" width="16.576" height="65.152"/>
	<rect x="307.12" y="262.592" style="fill:#00C454;" width="16.576" height="65.152"/>
</g>
</svg>